<svg xmlns="http://www.w3.org/2000/svg" width="12" height="12" viewBox="0 0 12 12">
    <g fill="none" fill-rule="evenodd">
        <g fill-rule="nonzero">
            <g>
                <g>
                    <path fill="#DCEEFF" d="M6 0C2.691 0 0 2.691 0 6s2.691 6 6 6 6-2.691 6-6-2.691-6-6-6z" transform="translate(-594.000000, -714.000000) translate(545.000000, 367.000000) translate(49.000000, 347.000000)"/>
                    <path fill="#6A89A7" d="M9.085 4.865L5.85 8.16c-.097.099-.224.149-.352.149-.127 0-.254-.05-.352-.149L3.531 6.512c-.195-.198-.195-.518 0-.716.194-.199.508-.199.703 0l1.265 1.288L8.381 4.15c.195-.199.51-.199.704 0 .194.198.194.518 0 .716z" transform="translate(-594.000000, -714.000000) translate(545.000000, 367.000000) translate(49.000000, 347.000000)"/>
                </g>
            </g>
        </g>
    </g>
</svg>
