<svg xmlns="http://www.w3.org/2000/svg" width="85" height="85" viewBox="0 0 85 85">
    <g fill="none" fill-rule="evenodd">
        <g>
            <g>
                <g transform="translate(-672.000000, -407.000000) translate(545.000000, 367.000000) translate(127.000000, 40.000000)">
                    <circle cx="42.5" cy="42.5" r="42.5" fill="#E5F2FE"/>
                    <g fill-rule="nonzero">
                        <path fill="#00E1F0" d="M34.19 6.357c0 3.094-5.5 8.4-5.5 8.4s-5.5-5.306-5.5-8.4c0-3.093 2.462-5.6 5.5-5.6 3.037 0 5.5 2.507 5.5 5.6zM9.19 11.342c0 2.53-4.5 6.415-4.5 6.415s-4.5-3.885-4.5-6.415c0-2.532 2.014-4.585 4.5-4.585 2.485 0 4.5 2.053 4.5 4.585z" transform="translate(25.000000, 23.000000)"/>
                        <g fill="#29629B">
                            <path d="M35.132 18.53c0-3.176-.87-6.29-2.516-8.998.754-1.037 1.215-2.26 1.332-3.54.011-3.299-2.631-5.98-5.9-5.992-1.76-.006-3.432.779-4.561 2.14C17.853.209 11.63 1.357 7.039 5.173c-2.622-1.068-5.607.21-6.666 2.854C.128 8.637.002 9.291 0 9.95c0 1.146.699 2.388 1.545 3.528-.5 1.636-.754 3.34-.752 5.052.005 1.74.27 3.469.788 5.129.15.492.597.83 1.107.841.118 0 .236-.019.35-.053.624-.195.973-.863.78-1.493-.437-1.433-.659-2.924-.656-4.424.003-.979.1-1.955.29-2.914.408.394.746.693.917.842.214.181.485.28.764.28.28 0 .55-.102.764-.286.728-.597 4.37-3.863 4.37-6.478-.002-1.228-.437-2.416-1.226-3.35 3.804-2.9 8.76-3.773 13.315-2.347-.165.556-.248 1.134-.249 1.714 0 2.985 4.25 7.219 5.103 8.03.457.437 1.172.437 1.629 0 .788-.755 1.535-1.552 2.238-2.388 3.742 7.33.885 16.33-6.383 20.105-6.44 3.344-14.334 1.498-18.655-4.366-.39-.53-1.132-.643-1.658-.25-.526.392-.637 1.14-.249 1.671 5.62 7.703 16.366 9.354 24.005 3.687 4.399-3.263 6.996-8.443 6.995-13.95zM5.02 13.623C3.662 12.412 2.15 10.727 2.15 9.837c0-1.473 1.284-2.667 2.868-2.667 1.584 0 2.867 1.194 2.868 2.667 0 .885-1.51 2.575-2.868 3.786zm22.943-2.151c-1.697-1.844-3.585-4.344-3.585-5.635 0-2.036 1.605-3.686 3.585-3.686s3.585 1.65 3.585 3.686c0 1.29-1.894 3.816-3.585 5.635z" transform="translate(25.000000, 23.000000) translate(0.000000, 1.000000)"/>
                            <path d="M11.251 18.928c-.67 0-1.213.514-1.213 1.147 0 .634.543 1.148 1.213 1.148h1.335c.155.718.455 1.402.886 2.013l-.656.62c-.449.47-.41 1.195.088 1.62.463.395 1.168.394 1.63-.003l.654-.614c.647.406 1.37.69 2.13.838v1.835c0 .634.543 1.147 1.213 1.147s1.214-.513 1.214-1.147v-1.835c.76-.15 1.482-.433 2.129-.838l.65.614c.495.426 1.262.392 1.713-.077.42-.436.421-1.103.003-1.54l-.655-.62c.432-.61.734-1.294.892-2.013h.121c.67 0 1.213-.514 1.213-1.148 0-.633-.543-1.147-1.213-1.147h-.121c-.156-.719-.46-1.403-.892-2.013l1.377-1.302c.496-.426.532-1.152.081-1.62-.45-.469-1.218-.503-1.714-.077-.03.025-.057.052-.084.08l-1.371 1.296c-.647-.405-1.37-.689-2.13-.838V12.62c0-.634-.542-1.147-1.213-1.147-.67 0-1.213.513-1.213 1.147v1.835c-.76.148-1.483.432-2.13.838l-.048-.04c-.496-.427-1.263-.392-1.714.076-.42.437-.42 1.103-.003 1.541l.049.046c-.431.61-.732 1.294-.886 2.013H11.25zm7.393-.258c.66 0 1.195-.494 1.195-1.104v-.358c1.867.611 2.843 2.505 2.18 4.228-.042.106-.088.21-.14.313l-.276-.254c-.475-.431-1.24-.425-1.707.014-.467.438-.46 1.144.015 1.575l.275.254c-1.789.786-3.929.085-4.78-1.566-.234-.451-.353-.946-.35-1.447.002-1.401.96-2.65 2.392-3.117v.358c0 .61.535 1.104 1.196 1.104z" transform="translate(25.000000, 23.000000) translate(0.000000, 1.000000)"/>
                            <path d="M17.566 21.51c.594 0 1.076-.482 1.076-1.076 0-.594-.482-1.076-1.076-1.076-.594 0-1.075.482-1.075 1.076 0 .594.481 1.075 1.075 1.075zM29.038 38c.594 0 1.075-.481 1.075-1.075s-.481-1.076-1.075-1.076-1.076.482-1.076 1.076c0 .594.482 1.075 1.076 1.075zM24.598 35.85H11.251c-.67 0-1.213.48-1.213 1.075 0 .594.543 1.075 1.213 1.075h13.347c.67 0 1.213-.481 1.213-1.075 0-.595-.543-1.076-1.213-1.076z" transform="translate(25.000000, 23.000000) translate(0.000000, 1.000000)"/>
                        </g>
                    </g>
                </g>
            </g>
        </g>
    </g>
</svg>
