<svg xmlns="http://www.w3.org/2000/svg" width="85" height="85" viewBox="0 0 85 85">
    <g fill="none" fill-rule="evenodd">
        <g>
            <g>
                <g transform="translate(-1052.000000, -407.000000) translate(925.000000, 367.000000) translate(127.000000, 40.000000)">
                    <circle cx="42.5" cy="42.5" r="42.5" fill="#E5F2FE"/>
                    <g fill-rule="nonzero">
                        <path fill="#E3FCFD" d="M20.008 9.209c-.443-.434-.926-.825-1.442-1.17H6.463c-1.401.965-2.547 2.253-3.338 3.755-.791 1.5-1.205 3.17-1.207 4.865v4.682h5.204c.46 1.042 1.214 1.929 2.171 2.551.958.623 2.077.954 3.221.954 1.145 0 2.264-.331 3.222-.954.957-.622 1.712-1.509 2.17-2.55h5.205v-4.683c0-1.383-.274-2.753-.806-4.032-.532-1.278-1.313-2.44-2.297-3.418zM16.387 27.038H9.372c-.62 0-1.215.25-1.653.696-.439.446-.685 1.05-.685 1.68v7.124h11.692v-7.125c0-.63-.246-1.233-.685-1.679-.439-.445-1.033-.696-1.654-.696z" transform="translate(29.000000, 24.000000)"/>
                        <path fill="#00E1F0" d="M7.034 0.731L17.995 0.731 17.995 8.769 7.034 8.769z" transform="translate(29.000000, 24.000000)"/>
                        <path fill="#29629B" d="M24.572 16.75c.004-1.572-.307-3.129-.913-4.58-.606-1.452-1.497-2.77-2.62-3.879-.504-.505-1.055-.962-1.646-1.364-.131-.085-.276-.147-.428-.185l.477-3.326c.061-.427.03-.862-.094-1.275-.124-.414-.336-.796-.622-1.12-.287-.325-.64-.584-1.037-.76-.397-.176-.827-.265-1.262-.26H8.572c-.432 0-.86.091-1.253.27-.393.177-.743.437-1.026.761-.283.324-.492.704-.614 1.116-.122.411-.153.844-.092 1.268l.477 3.326c-.156.036-.303.1-.435.191-1.595 1.102-2.9 2.57-3.8 4.279C.93 12.92.458 14.82.457 16.749v4.786c0 .317.127.622.353.846.226.224.533.35.852.35h4.594c.636 1.088 1.55 1.99 2.647 2.619 1.099.627 2.344.958 3.611.958 1.268 0 2.513-.33 3.611-.958 1.099-.628 2.011-1.531 2.647-2.619h4.594c.32 0 .627-.126.853-.35.226-.224.353-.529.353-.846v-4.786zm-16-14.357h7.885c.446.066.603.233.603.682l-.687 4.785c-.02.144-.093.276-.204.37-.111.095-.253.146-.399.145H9.259c-.146.001-.288-.05-.4-.145-.11-.094-.183-.226-.203-.37l-.687-4.785c.006-.449.156-.616.603-.682zm3.942 21.535c-1.279 0-2.506-.505-3.41-1.402-.905-.897-1.413-2.115-1.413-3.384V14.71l6.517-1.49 3.13 1.328v4.594c0 1.27-.509 2.487-1.413 3.384-.905.897-2.131 1.402-3.41 1.402zm9.647-3.59h-2.52c.07-.394.106-.795.108-1.196V13.76c0-.235-.069-.464-.198-.66-.13-.195-.315-.349-.531-.441l-4.22-1.795c-.237-.1-.498-.123-.748-.066l-7.838 1.795c-.266.061-.503.21-.672.421-.17.212-.262.475-.262.746v5.383c.002.401.039.802.108 1.197h-2.52v-3.59c.001-1.46.338-2.9.986-4.21.648-1.31 1.59-2.457 2.752-3.35.257.476.64.874 1.107 1.152.467.278 1.001.426 1.546.427h6.511c.543-.002 1.076-.149 1.542-.426.465-.277.847-.673 1.105-1.148.323.24.63.502.916.784.9.887 1.612 1.942 2.098 3.105.485 1.162.733 2.408.73 3.666v3.59zM5.572 29.815v7.016c0 .31.127.607.352.827.225.219.53.342.849.342h14.406c.319 0 .624-.123.85-.342.224-.22.35-.517.35-.827 0-.31-.126-.608-.35-.827-.226-.22-.531-.342-.85-.342h-1.2v-5.847c0-.93-.38-1.822-1.055-2.48-.676-.658-1.592-1.027-2.547-1.027H9.174c-.955 0-1.872.37-2.547 1.027-.675.658-1.055 1.55-1.055 2.48zm12.006 0v5.847H7.973v-5.847c0-.31.127-.607.352-.826.225-.22.53-.343.849-.343h2.4v1.17c0 .31.127.607.353.826.225.22.53.343.848.343.319 0 .624-.124.85-.343.224-.22.351-.517.351-.827v-1.169h2.401c.318 0 .624.123.849.343.225.219.352.516.352.826zM25.668 38c.606 0 1.096-.49 1.096-1.096 0-.606-.49-1.096-1.096-1.096-.605 0-1.096.49-1.096 1.096 0 .605.49 1.096 1.096 1.096z" transform="translate(29.000000, 24.000000)"/>
                    </g>
                </g>
            </g>
        </g>
    </g>
</svg>
