<svg xmlns="http://www.w3.org/2000/svg" width="85" height="85" viewBox="0 0 85 85">
    <g fill="none" fill-rule="evenodd">
        <g>
            <g>
                <g>
                    <g transform="translate(-302.000000, -407.000000) translate(165.000000, 367.000000) translate(49.000000, 40.000000) translate(88.000000, 0.000000)">
                        <circle cx="42.5" cy="42.5" r="42.5" fill="#E5F2FE"/>
                        <path fill="#00E1F0" fill-rule="nonzero" d="M35.277 25.617L48.213 25.617 48.213 32.085 35.277 32.085z"/>
                        <path fill="#29629B" fill-rule="nonzero" d="M43.766 55.532h2.425c.67 0 1.213-.362 1.213-.809 0-.446-.542-.808-1.213-.808h-2.425c-.67 0-1.213.362-1.213.808 0 .447.543.809 1.213.809zM41.745 35.32c-.638 0-1.155.516-1.155 1.154v1.733h-1.733c-.638 0-1.155.517-1.155 1.155s.517 1.155 1.155 1.155h1.733v1.732c0 .638.517 1.155 1.155 1.155s1.155-.517 1.155-1.155v-1.732h1.732c.638 0 1.155-.517 1.155-1.155s-.517-1.155-1.155-1.155H42.9v-1.733c0-.638-.517-1.155-1.155-1.155zM50.234 55.532c.67 0 1.213-.362 1.213-.809 0-.446-.543-.808-1.213-.808s-1.213.362-1.213.808c0 .447.543.809 1.213.809z"/>
                        <path fill="#29629B" fill-rule="nonzero" d="M53.77 27.41h-3.962v-2.273c0-.628-.507-1.137-1.132-1.137H36.225c-.626 0-1.132.509-1.132 1.137v2.274h-3.962c-1.562 0-2.83 1.273-2.83 2.842v4.548c0 .628.507 1.137 1.132 1.137.626 0 1.132-.509 1.132-1.137v-4.548c0-.313.254-.568.566-.568h3.962v2.274c0 .628.506 1.137 1.132 1.137h12.45c.626 0 1.133-.509 1.133-1.137v-2.274h3.962c.312 0 .566.255.566.568v27.288c0 .313-.254.568-.566.568H43.016v-9.664c0-1.57-1.267-2.843-2.83-2.843h-9.62V39.35c0-.628-.507-1.137-1.133-1.137-.625 0-1.132.509-1.132 1.137v7.39c.006.3.126.587.334.802l12.451 12.507c.212.213.498.334.798.335H53.77c1.562 0 2.83-1.273 2.83-2.842V30.253c0-1.57-1.268-2.842-2.83-2.842zm-6.175 3.737h-10.29v-4.548h10.29v4.548zM39.97 48.039c.304 0 .551.25.551.557v7.889l-8.36-8.446h7.809z"/>
                    </g>
                </g>
            </g>
        </g>
    </g>
</svg>
