<svg xmlns="http://www.w3.org/2000/svg" width="158" height="35" viewBox="0 0 158 35">
    <g fill="none" fill-rule="evenodd">
        <g>
            <g>
                <g>
                    <path fill="#00E1F0" d="M12.628 23.6v-3.58h1.662c1.51 0 2.947-.599 4.047-1.685 1.088-1.111 1.693-2.556 1.693-4.06V4.259c0-.248-.135-.421-.216-.501-.137-.131-.331-.217-.503-.217h-5.008c-.249 0-.422.136-.502.217-.136.135-.217.322-.217.501v7.509c0 .987-.803 1.79-1.791 1.79H4.275c-.249 0-.422.135-.503.216-.081.08-.216.253-.216.501v5.002c0 .24.143.425.229.514.068.068.241.204.49.204h6.683v3.579h-6.67c-1.135 0-2.24-.462-3.03-1.268C.461 21.509 0 20.408 0 19.29v-5.002c0-1.134.462-2.238 1.27-3.028.779-.794 1.883-1.256 3.018-1.256h5.727V4.285c0-1.135.448-2.208 1.264-3.022C12.064.462 13.169 0 14.303 0h5.008c1.151 0 2.227.451 3.029 1.268.799.797 1.259 1.899 1.259 3.017v10.016c0 2.476-.975 4.805-2.747 6.56-1.751 1.765-4.084 2.739-6.562 2.739h-1.662z" transform="translate(-166.000000, -19.000000) translate(166.000400, 13.000000) translate(0.000000, 5.999600)"/>
                    <path fill="#EA2291" d="M19.908 14.581c-.323 0-.384.027-.92.155-1.486.353-2.422 1.214-2.739 1.531-1.082 1.082-1.68 2.517-1.68 4.037v10.009c0 .249.135.422.215.502.14.146.31.217.504.217h5.007c.237 0 .404-.118.502-.216.082-.081.217-.254.217-.503v-7.5c0-.987.804-1.791 1.791-1.791h7.505c.25 0 .423-.135.504-.216.136-.137.215-.32.215-.502v-5.005c0-.193-.07-.363-.203-.489-.093-.093-.266-.229-.516-.229h-6.657V11h6.657c1.16 0 2.241.451 3.043 1.269.803.82 1.246 1.895 1.246 3.03v5.005c0 1.127-.443 2.198-1.246 3.018-.809.808-1.916 1.269-3.043 1.269h-5.714v5.722c0 1.16-.45 2.24-1.27 3.042-.838.805-1.913 1.245-3.03 1.245h-5.008c-1.127 0-2.229-.456-3.025-1.25-.815-.815-1.264-1.894-1.264-3.037V20.304c0-2.478.97-4.813 2.732-6.574 1.301-1.3 2.656-1.891 3.27-2.124 1.354-.516 2.152-.606 2.907-.606v3.581z" transform="translate(-166.000000, -19.000000) translate(166.000400, 13.000000) translate(0.000000, 5.999600)"/>
                    <path fill="#0D1B31" fill-rule="nonzero" d="M49.088 21v-5.824l-.32-2.208h.08l.704 1.776 2.512 4.192h.704l2.384-4.176.688-1.792h.096l-.24 2.224V21h2.192V9.8h-1.984l-2.832 5.088-.48 1.312h-.064L52 14.92 49.008 9.8h-2V21h2.08zm15.6 0v-4.176L68.352 9.8H66l-1.984 4.176-.24 1.216h-.08l-.224-1.184L61.424 9.8h-2.608l3.68 7.04V21h2.192zm6.784 0v-4.688h4.096V21h2.192V9.8h-2.192v4.56h-4.096V9.8H69.28V21h2.192zm14.944 0v-1.952h-4.528v-2.736h4.048V14.36h-4.048v-2.608h4.448V9.8h-6.64V21h6.72zm2.864 0l.848-2.48h3.44l.896 2.48h2.304L92.736 9.72H91.12L87.088 21h2.192zm3.808-4.24h-2.4l.816-2.48.336-1.776h.08l.336 1.76.832 2.496zM104.816 21v-1.952H99.92V9.8h-2.192V21h7.088zm3.728 0v-9.248h3.264V9.8h-8.736v1.952h3.28V21h2.192zm6.592 0v-4.688h4.096V21h2.192V9.8h-2.192v4.56h-4.096V9.8h-2.192V21h2.192zm12.88.224c.554 0 1.096-.053 1.624-.16.528-.106.962-.282 1.304-.528l-.448-1.792c-.246.15-.534.272-.864.368-.331.096-.736.144-1.216.144-.512 0-.963-.093-1.352-.28-.39-.186-.715-.448-.976-.784-.262-.336-.456-.74-.584-1.216-.128-.474-.192-1-.192-1.576 0-1.322.269-2.298.808-2.928.538-.629 1.25-.944 2.136-.944.48 0 .888.027 1.224.08.336.054.626.14.872.256l.432-1.856c-.288-.117-.654-.218-1.096-.304-.443-.085-.984-.128-1.624-.128-.598 0-1.195.1-1.792.296-.598.198-1.14.523-1.624.976-.486.454-.88 1.051-1.184 1.792-.304.742-.456 1.662-.456 2.76 0 1.056.136 1.955.408 2.696.272.742.637 1.344 1.096 1.808.458.464.989.8 1.592 1.008.602.208 1.24.312 1.912.312zm4.816-.224l.848-2.48h3.44l.896 2.48h2.304l-4.032-11.28h-1.616L130.64 21h2.192zm3.808-4.24h-2.4l.816-2.48.336-1.776h.08l.336 1.76.832 2.496zm6.832 4.24v-4.592l1.152.208L147.168 21h2.528l-2.56-4.272-.784-.496c.714-.224 1.285-.624 1.712-1.2.426-.576.64-1.322.64-2.24 0-.618-.12-1.133-.36-1.544-.24-.41-.56-.733-.96-.968-.4-.234-.854-.4-1.36-.496-.507-.096-1.022-.144-1.544-.144-.224 0-.47.006-.736.016-.267.011-.542.027-.824.048-.283.022-.566.051-.848.088-.283.038-.547.078-.792.12V21h2.192zm.928-6.08h-.928v-3.248c.117-.032.285-.053.504-.064.218-.01.44-.016.664-.016.576 0 1.013.136 1.312.408.298.272.448.648.448 1.128 0 .64-.182 1.1-.544 1.376-.363.278-.848.416-1.456.416zM157.632 21v-1.952h-4.528v-2.736h4.048V14.36h-4.048v-2.608h4.448V9.8h-6.64V21h6.72z" transform="translate(-166.000000, -19.000000) translate(166.000400, 13.000000) translate(0.000000, 5.999600)"/>
                </g>
            </g>
        </g>
    </g>
</svg>
