<svg width="136" height="35" viewBox="0 0 136 35" fill="none" xmlns="http://www.w3.org/2000/svg">
<path fill-rule="evenodd" clip-rule="evenodd" d="M12.6284 23.5996V20.0196H14.2904C15.8004 20.0196 17.2374 19.4206 18.3374 18.3346C19.4254 17.2236 20.0304 15.7786 20.0304 14.2746V4.2586C20.0304 4.0106 19.8954 3.8376 19.8144 3.7576C19.6774 3.6266 19.4834 3.5406 19.3114 3.5406H14.3034C14.0544 3.5406 13.8814 3.6766 13.8014 3.7576C13.6654 3.8926 13.5844 4.0796 13.5844 4.2586V11.7676C13.5844 12.7546 12.7814 13.5576 11.7934 13.5576H4.2754C4.0264 13.5576 3.8534 13.6926 3.7724 13.7736C3.6914 13.8536 3.5564 14.0266 3.5564 14.2746V19.2766C3.5564 19.5166 3.6994 19.7016 3.7854 19.7906C3.8534 19.8586 4.0264 19.9946 4.2754 19.9946H10.9584V23.5736H4.2884C3.1534 23.5736 2.0484 23.1116 1.2584 22.3056C0.461397 21.5086 0.000396729 20.4076 0.000396729 19.2896V14.2876C0.000396729 13.1536 0.462397 12.0496 1.2704 11.2596C2.0494 10.4656 3.1534 10.0036 4.2884 10.0036H10.0154V4.2846C10.0154 3.1496 10.4634 2.0766 11.2794 1.2626C12.0644 0.461603 13.1694 -0.000396729 14.3034 -0.000396729H19.3114C20.4624 -0.000396729 21.5384 0.450603 22.3404 1.2676C23.1394 2.0646 23.5994 3.1666 23.5994 4.2846V14.3006C23.5994 16.7766 22.6244 19.1056 20.8524 20.8606C19.1014 22.6256 16.7684 23.5996 14.2904 23.5996H12.6284Z" fill="#00E1F0"/>
<path fill-rule="evenodd" clip-rule="evenodd" d="M19.9084 14.5806C19.5854 14.5806 19.5244 14.6076 18.9884 14.7356C17.5024 15.0886 16.5664 15.9496 16.2494 16.2666C15.1674 17.3486 14.5694 18.7836 14.5694 20.3036V30.3126C14.5694 30.5616 14.7044 30.7346 14.7844 30.8146C14.9244 30.9606 15.0944 31.0316 15.2884 31.0316H20.2954C20.5324 31.0316 20.6994 30.9136 20.7974 30.8156C20.8794 30.7346 21.0144 30.5616 21.0144 30.3126V22.8126C21.0144 21.8256 21.8184 21.0216 22.8054 21.0216H30.3104C30.5604 21.0216 30.7334 20.8866 30.8144 20.8056C30.9504 20.6686 31.0294 20.4856 31.0294 20.3036V15.2986C31.0294 15.1056 30.9594 14.9356 30.8264 14.8096C30.7334 14.7166 30.5604 14.5806 30.3104 14.5806H23.6534V10.9996H30.3104C31.4704 10.9996 32.5514 11.4506 33.3534 12.2686C34.1564 13.0886 34.5994 14.1636 34.5994 15.2986V20.3036C34.5994 21.4306 34.1564 22.5016 33.3534 23.3216C32.5444 24.1296 31.4374 24.5906 30.3104 24.5906H24.5964V30.3126C24.5964 31.4726 24.1464 32.5526 23.3264 33.3546C22.4884 34.1596 21.4134 34.5996 20.2964 34.5996H15.2884C14.1614 34.5996 13.0594 34.1436 12.2634 33.3496C11.4484 32.5346 10.9994 31.4556 10.9994 30.3126V20.3036C10.9994 17.8256 11.9694 15.4906 13.7314 13.7296C15.0324 12.4296 16.3874 11.8386 17.0014 11.6056C18.3554 11.0896 19.1534 10.9996 19.9084 10.9996V14.5806Z" fill="#EA2291"/>
<path d="M49.192 22.424V17.736H53.288V22.424H55.48V11.224H53.288V15.784H49.192V11.224H47V22.424H49.192ZM64.136 22.424V20.472H59.608V17.736H63.656V15.784H59.608V13.176H64.056V11.224H57.416V22.424H64.136ZM67 22.424L67.848 19.944H71.288L72.184 22.424H74.488L70.456 11.144H68.84L64.808 22.424H67ZM70.808 18.184H68.408L69.224 15.704L69.56 13.928H69.64L69.976 15.688L70.808 18.184ZM82.536 22.424V20.472H77.64V11.224H75.448V22.424H82.536ZM86.264 22.424V13.176H89.528V11.224H80.792V13.176H84.072V22.424H86.264ZM92.856 22.424V17.736H96.952V22.424H99.144V11.224H96.952V15.784H92.856V11.224H90.664V22.424H92.856ZM105.736 22.648C106.29 22.648 106.832 22.595 107.36 22.488C107.888 22.382 108.322 22.206 108.664 21.96L108.216 20.168C107.97 20.318 107.682 20.44 107.352 20.536C107.021 20.632 106.616 20.68 106.136 20.68C105.624 20.68 105.173 20.587 104.784 20.4C104.394 20.214 104.069 19.952 103.808 19.616C103.546 19.28 103.352 18.876 103.224 18.4C103.096 17.926 103.032 17.4 103.032 16.824C103.032 15.502 103.301 14.526 103.84 13.896C104.378 13.267 105.09 12.952 105.976 12.952C106.456 12.952 106.864 12.979 107.2 13.032C107.536 13.086 107.826 13.172 108.072 13.288L108.504 11.432C108.216 11.315 107.85 11.214 107.408 11.128C106.965 11.043 106.424 11 105.784 11C105.186 11 104.589 11.1 103.992 11.296C103.394 11.494 102.852 11.819 102.368 12.272C101.882 12.726 101.488 13.323 101.184 14.064C100.88 14.806 100.728 15.726 100.728 16.824C100.728 17.88 100.864 18.779 101.136 19.52C101.408 20.262 101.773 20.864 102.232 21.328C102.69 21.792 103.221 22.128 103.824 22.336C104.426 22.544 105.064 22.648 105.736 22.648ZM110.552 22.424L111.4 19.944H114.84L115.736 22.424H118.04L114.008 11.144H112.392L108.36 22.424H110.552ZM114.36 18.184H111.96L112.776 15.704L113.112 13.928H113.192L113.528 15.688L114.36 18.184ZM121.192 22.424V17.832L122.344 18.04L124.888 22.424H127.416L124.856 18.152L124.072 17.656C124.786 17.432 125.357 17.032 125.784 16.456C126.21 15.88 126.424 15.134 126.424 14.216C126.424 13.598 126.304 13.083 126.064 12.672C125.824 12.262 125.504 11.939 125.104 11.704C124.704 11.47 124.25 11.304 123.744 11.208C123.237 11.112 122.722 11.064 122.2 11.064C121.976 11.064 121.73 11.07 121.464 11.08C121.197 11.091 120.922 11.107 120.64 11.128C120.357 11.15 120.074 11.179 119.792 11.216C119.509 11.254 119.245 11.294 119 11.336V22.424H121.192ZM122.12 16.344H121.192V13.096C121.309 13.064 121.477 13.043 121.696 13.032C121.914 13.022 122.136 13.016 122.36 13.016C122.936 13.016 123.373 13.152 123.672 13.424C123.97 13.696 124.12 14.072 124.12 14.552C124.12 15.192 123.938 15.652 123.576 15.928C123.213 16.206 122.728 16.344 122.12 16.344ZM135.352 22.424V20.472H130.824V17.736H134.872V15.784H130.824V13.176H135.272V11.224H128.632V22.424H135.352Z" fill="#0D1B31"/>
</svg>
